PathFileType	4	(X/Y/Z)	/home/filipkon/dev/OpenSimRT/data/gait1992/experimental_data/task_resampled.trc
DataRate	CameraRate	NumFrames	NumMarkers	Units	OrigDataRate	OrigDataStartFrame	OrigNumFrames
100	100	4	41	mm	100	219	251
Frame#	Time	R.ASIS			L.ASIS			V.Sacral			R.Thigh.Upper			R.Thigh.Front			R.Thigh.Rear			L.Thigh.Upper			L.Thigh.Front			L.Thigh.Rear			R.Shank.Upper			R.Shank.Front			R.Shank.Rear			L.Shank.Upper			L.Shank.Front			L.Shank.Rear			R.Heel			R.Midfoot.Sup			R.Midfoot.Lat			R.Toe.Tip			L.Heel			L.Midfoot.Sup			L.Midfoot.Lat			L.Toe.Tip			Sternum			R.Acromium			L.Acromium			R.Bicep			L.Bicep			R.Elbow			L.Elbow			R.Wrist.Med			R.Wrist.Lat			L.Wrist.Med			L.Wrist.Lat			R.Toe.Lat			R.Toe.Med			L.Toe.Lat			L.Toe.Med			R.Temple			L.Temple			Top.Head			
		X1	Y1	Z1	X2	Y2	Z2	X3	Y3	Z3	X4	Y4	Z4	X5	Y5	Z5	X6	Y6	Z6	X7	Y7	Z7	X8	Y8	Z8	X9	Y9	Z9	X10	Y10	Z10	X11	Y11	Z11	X12	Y12	Z12	X13	Y13	Z13	X14	Y14	Z14	X15	Y15	Z15	X16	Y16	Z16	X17	Y17	Z17	X18	Y18	Z18	X19	Y19	Z19	X20	Y20	Z20	X21	Y21	Z21	X22	Y22	Z22	X23	Y23	Z23	X24	Y24	Z24	X25	Y25	Z25	X26	Y26	Z26	X27	Y27	Z27	X28	Y28	Z28	X29	Y29	Z29	X30	Y30	Z30	X31	Y31	Z31	X32	Y32	Z32	X33	Y33	Z33	X34	Y34	Z34	X35	Y35	Z35	X36	Y36	Z36	X37	Y37	Z37	X38	Y38	Z38	X39	Y39	Z39	X40	Y40	Z40	X41	Y41	Z41	

220	2.19	621.1726047058823	1081.067468823529	173.3270464705882	620.8878147058823	1072.202047058824	-86.65779352941178	422.3591782352941	1070.796311764706	51.02240294117647	604.8038352941177	755.5359635294118	213.9494229411765	666.5163088235294	700.4572270588235	116.6975288235294	605.2741464705882	632.9168682352941	200.0569447058824	645.0578623529412	772.1749041176471	-152.1216147058823	752.4685852941176	764.1530847058823	-103.9761952941176	685.4359611764706	669.3549552941176	-147.8824747058824	542.6020982352942	458.5828694117647	183.6807888235294	617.1697911764707	420.3953752941176	128.5607641176471	550.67688	371.7195558823529	187.2023223529412	657.4471082352941	492.4274170588236	-150.0439382352941	664.5771123529412	421.2139670588235	-97.3611911764706	613.2442876470587	472.6038382352941	-152.0812541176471	451.1851382352941	71.06604	93.60832470588235	595.9227505882353	78.83935647058824	61.64473647058824	586.8935152941177	63.19172470588235	168.7706294117647	739.6875235294118	48.95233705882353	104.9469488235294	358.0463864705882	264.7246776470589	-47.27339058823529	485.5255211764705	154.4155747058824	-31.00061705882353	461.674748235294	157.517765882353	-125.8650841176471	550.9554623529411	62.8940705882353	-64.44218764705883	643.1543676470588	1391.990688235294	38.98390529411765	546.1015317647059	1471.494864117647	254.8754829411765	561.5089488235294	1506.434382352941	-164.34237	574.0433594117648	1266.812386470588	295.1269517647059	571.107545882353	1267.950182352941	-203.6892494117647	543.6652852941177	1159.640634705882	323.4310894117647	515.8162129411764	1176.471005294118	-242.0727335294118	717.9397	954.6345370588235	300.4837170588235	681.5903382352941	931.9744682352941	350.9280664705882	611.08748	942.0696399999999	-210.5157794117647	565.7424217647059	936.7059711764706	-270.3313076470588	675.4706729411765	38.56129470588235	183.8259135294118	682.3709494117647	46.97359823529412	73.6664688235294	489.7823788235294	96.91770647058824	-137.0155029411765	515.9959905882353	94.25956941176472	-36.81127470588235	685.4672923529412	1636.447552941177	132.1824735294118	693.7544635294117	1645.863718823529	-6.893357647058822	637.7399547058823	1807.243184117647	74.44765823529413	
221	2.2	619.06104	1081.05591	174.39307	619.87585	1072.573	-85.47517000000001	421.07349	1071.6582	51.20615	599.013	755.41174	214.38167	660.98645	699.98248	117.79147	597.87317	633.05768	200.70258	648.85748	774.38861	-151.39615	755.52325	768.04382	-102.23776	690.58862	672.1735200000001	-146.84871	533.1043100000001	459.20654	183.61183	608.16125	420.02884	128.41797	541.2725799999999	371.96655	186.95824	666.83862	493.39917	-148.30585	676.78113	422.94742	-96.16685	623.13647	472.00345	-151.25266	440.20795	71.12734	93.51236	584.91718	78.90778	61.59606	575.64258	63.23636	168.6888	728.521	48.72889	104.97929	375.34091	253.11676	-46.80912	507.61398	148.77571	-30.53487	484.84906	151.66116	-125.69049	577.75018	60.7336	-63.88387	643.19885	1392.9801	39.05947	545.51642	1472.58337	255.08173	560.30609	1506.4397	-163.98047	575.92493	1268.37891	296.05844	567.97174	1268.2937	-203.71782	545.43225	1160.88977	324.46576	510.82056	1177.35767	-241.98241	723.1181	958.98419	300.23947	687.8661499999999	935.65948	350.62869	607.42688	943.5981399999999	-210.42465	562.41791	937.64893	-269.94409	664.33032	38.73283	183.97739	670.99152	46.83341	73.57120999999999	515.42682	92.23813	-136.65485	541.34052	90.32544	-36.37941	684.71631	1637.6167	131.60045	692.87164	1646.68396	-7.19394	636.28369	1808.02429	73.68827	
222	2.21	617.7079929411765	1081.100215882353	175.2956817647059	619.4724794117647	1073.4514	-84.5172817647059	419.7739076470588	1072.244711764706	51.38532058823529	593.7079705882354	755.2818105882353	214.4745347058823	655.4086264705883	698.93458	118.3422817647059	590.8776758823531	633.1476152941176	200.9353270588235	652.0587035294118	776.2600570588235	-150.8505029411765	757.9329558823529	771.029808235294	-100.3851423529412	695.1303905882352	674.5014023529411	-145.98621	524.135515882353	459.2225517647059	183.5800829411765	598.2691794117649	419.5204870588236	128.8336641176471	531.8711564705884	371.9702323529411	186.6309635294118	675.2411905882351	493.9620405882353	-147.1801264705882	687.4342417647057	423.49632	-95.12330294117649	632.2864699999999	470.7035264705883	-150.5402247058824	429.3222735294119	71.16031647058824	93.34013647058823	573.8301741176472	78.89668	61.52202470588235	564.3801564705884	63.26939529411765	168.5636235294118	717.2928294117648	48.54773705882353	105.0049135294118	393.9128688235291	240.1509364705884	-46.38846705882354	530.8629741176467	142.6305394117648	-30.45728176470588	508.7077364705879	145.2085600000001	-125.6885605882353	605.5735270588232	58.67428823529415	-63.88784647058824	642.1975147058823	1393.514194117647	38.8712405882353	545.1519670588235	1473.383364117647	254.9417770588235	559.4232723529412	1506.258747058823	-163.7777052941177	576.079024117647	1269.34405117647	296.5233105882353	564.7552576470589	1268.445352941176	-204.0686847058823	546.9083676470588	1161.807811176471	325.3774482352941	506.4837600000001	1177.643887647059	-242.3124629411764	728.133394117647	962.9973958823529	299.7216582352941	693.262338235294	938.9462270588235	349.95709	604.9159270588236	944.0083694117646	-210.2002735294118	558.4229394117648	938.3733064705882	-269.2257252941176	652.7192082352943	38.87714176470588	183.9235311764706	659.7630258823532	46.74006294117648	73.52491000000001	542.0069494117643	87.40588294117654	-136.6760205882353	567.8089494117643	86.22056352941183	-36.38961588235294	684.2163982352942	1638.254770588235	131.4622676470588	692.1320752941176	1647.131024705882	-7.598504705882346	634.7820488235294	1808.462666470588	72.74817000000002	
223	2.22	616.186493125	1080.95462375	176.190525625	618.7908706249999	1074.078525625	-83.643045	418.4615325	1072.755314375	51.55881875	588.536208125	755.224505	214.7620875	649.7685281249999	697.765144375	118.89252375	583.7051856249999	633.0492093749999	201.15040125	655.054961875	778.01534875	-150.314905	759.9682	773.9520425000001	-98.56928187499999	699.045588125	676.660586875	-144.940275	514.9054593749999	459.199576875	183.5654875	588.4310512499999	419.2805975	129.047008125	522.0250068749999	372.09384875	186.421870625	682.982699375	494.272456875	-145.69257625	698.2578831250001	424.19869625	-94.24958875	641.33195375	469.14270375	-149.8040325	418.2103412499999	71.21023500000001	93.15400187499999	562.4966993749998	78.857535625	61.446940625	552.9068718749999	63.288468125	168.43092125	705.8427999999999	48.385786875	105.021059375	413.2760168750002	226.6367331249998	-45.97129499999999	554.9437537500003	136.3316118749999	-30.51050875	533.1924300000003	138.5476006249999	-125.772303125	634.1682350000004	56.71013812499998	-64.13040875000002	641.25640375	1393.76535625	38.76429	544.8606868749999	1474.04171125	254.80154375	558.51328	1505.916725	-163.834518125	576.4983874999999	1270.20001	296.870006875	561.466336875	1268.43359125	-204.436343125	548.339549375	1162.62906	326.266236875	502.1315231249999	1177.834855625	-242.516464375	732.9889756250001	967.1707868750001	299.1233675	698.71656125	942.254704375	349.29219125	602.25191125	944.535775625	-210.021154375	554.5644956249999	938.6765631249999	-268.339515	640.9804649999999	38.91143625	183.830819375	648.3811493749999	46.661480625	73.50742125000001	569.3138687500003	82.55960999999994	-136.859089375	595.0596518750003	82.07870687499995	-36.58391875000001	683.71331375	1638.915378125	131.212935625	691.2601737499999	1647.525178125	-8.190289375000011	633.351458125	1808.8407125	71.87757437499999	
